<svg width="14" height="14" viewBox="0 0 14 14" version="1.1" xmlns="http://www.w3.org/2000/svg" xmlns:xlink="http://www.w3.org/1999/xlink">
<title>Ellipse</title>
<desc>Created using Figma</desc>
<g id="Canvas" transform="translate(3320 242)">
<g id="Ellipse">
<mask id="mask0_outline_ins">
<use xlink:href="#path0_fill" fill="white" transform="translate(-3320 -242)"/>
</mask>
<g mask="url(#mask0_outline_ins)">
<use xlink:href="#path1_stroke_2x" transform="translate(-3320 -242)" fill="#FFFFFF" fill-opacity="0.17"/>
</g>
</g>
</g>
<defs>
<path id="path0_fill" d="M 14 7C 14 10.866 10.866 14 7 14C 3.13401 14 0 10.866 0 7C 0 3.13401 3.13401 0 7 0C 10.866 0 14 3.13401 14 7Z"/>
<path id="path1_stroke_2x" d="M 12 7C 12 9.76142 9.76142 12 7 12L 7 16C 11.9706 16 16 11.9706 16 7L 12 7ZM 7 12C 4.23858 12 2 9.76142 2 7L -2 7C -2 11.9706 2.02944 16 7 16L 7 12ZM 2 7C 2 4.23858 4.23858 2 7 2L 7 -2C 2.02944 -2 -2 2.02944 -2 7L 2 7ZM 7 2C 9.76142 2 12 4.23858 12 7L 16 7C 16 2.02944 11.9706 -2 7 -2L 7 2Z"/>
</defs>
</svg>
