<svg width="134" height="130" viewBox="0 0 134 130" version="1.1" xmlns="http://www.w3.org/2000/svg" xmlns:xlink="http://www.w3.org/1999/xlink">
<title>controler</title>
<desc>Created using Figma</desc>
<g id="Canvas" transform="translate(3233 137)">
<g id="controler">
<g id="Path">
<use xlink:href="#path0_stroke" transform="translate(-3232 -115.52)" fill="#FFFFFF"/>
</g>
<g id="Path">
<use xlink:href="#path1_stroke" transform="translate(-3171.08 -110.401)" fill="#FFFFFF"/>
</g>
<g id="Path">
<mask id="mask0_outline_ins">
<use xlink:href="#path2_fill" fill="white" transform="translate(-3173.62 -87.361)"/>
</mask>
<g mask="url(#mask0_outline_ins)">
<use xlink:href="#path3_stroke_2x" transform="translate(-3173.62 -87.361)" fill="#FFFFFF"/>
</g>
</g>
<g id="Shape">
<use xlink:href="#path4_stroke" transform="translate(-3182.67 -125.76)" fill="#FFFFFF"/>
</g>
<g id="Shape">
<use xlink:href="#path5_stroke" transform="translate(-3190.92 -136)" fill="#FFFFFF"/>
</g>
<g id="Shape">
<use xlink:href="#path6_stroke" transform="translate(-3221.85 -74.5612)" fill="#FFFFFF"/>
</g>
<g id="Oval">
<use xlink:href="#path7_stroke" transform="translate(-3127.92 -77.1212)" fill="#FFFFFF"/>
</g>
<g id="Oval">
<use xlink:href="#path7_stroke" transform="translate(-3127.92 -56.6416)" fill="#FFFFFF"/>
</g>
<g id="Oval">
<use xlink:href="#path7_stroke" transform="translate(-3117.77 -66.8814)" fill="#FFFFFF"/>
</g>
<g id="Oval">
<use xlink:href="#path7_stroke" transform="translate(-3138.08 -66.8814)" fill="#FFFFFF"/>
</g>
<g id="Shape">
<use xlink:href="#path8_stroke" transform="translate(-3186.31 -59.2015)" fill="#FFFFFF"/>
</g>
<g id="Shape">
<use xlink:href="#path8_stroke" transform="translate(-3163.46 -59.2015)" fill="#FFFFFF"/>
</g>
</g>
</g>
<defs>
<path id="path0_stroke" d="M 119.308 15.3597L 118.883 15.3597L 118.883 15.7847L 119.308 15.7847L 119.308 15.3597ZM 99 15.3597L 99 15.7847L 99.425 15.7847L 99.425 15.3597L 99 15.3597ZM 78.6923 30.7194L 78.2673 30.7194L 78.2673 31.1444L 78.6923 31.1444L 78.6923 30.7194ZM 68.5385 23.0395L 68.1135 23.0395L 68.1135 23.4645L 68.5385 23.4645L 68.5385 23.0395ZM 68.5385 20.1161L 68.4307 19.705L 68.1135 19.7881L 68.1135 20.1161L 68.5385 20.1161ZM 63.4615 20.1161L 63.8865 20.1161L 63.8865 19.7881L 63.5693 19.705L 63.4615 20.1161ZM 63.4615 23.0395L 63.4615 23.4645L 63.8865 23.4645L 63.8865 23.0395L 63.4615 23.0395ZM 53.3077 30.7194L 53.3077 31.1444L 53.7327 31.1444L 53.7327 30.7194L 53.3077 30.7194ZM 33 15.3597L 32.575 15.3597L 32.575 15.7847L 33 15.7847L 33 15.3597ZM 12.6923 15.3597L 12.6923 15.7847L 13.1173 15.7847L 13.1173 15.3597L 12.6923 15.3597ZM 21.3307 107.469L 21.3029 107.893L 21.3036 107.893L 21.3307 107.469ZM 38.4678 101.292L 38.7598 101.601L 38.7598 101.601L 38.4678 101.292ZM 107.638 107.469L 107.611 107.893L 107.611 107.893L 107.638 107.469ZM 124.776 101.292L 125.067 101.601L 125.068 101.601L 124.776 101.292ZM 119.733 15.3597C 119.733 12.3047 117.269 9.8148 114.231 9.8148L 114.231 10.6648C 116.793 10.6648 118.883 12.7674 118.883 15.3597L 119.733 15.3597ZM 114.231 9.8148L 104.077 9.8148L 104.077 10.6648L 114.231 10.6648L 114.231 9.8148ZM 104.077 9.8148C 101.039 9.8148 98.575 12.3047 98.575 15.3597L 99.425 15.3597C 99.425 12.7674 101.515 10.6648 104.077 10.6648L 104.077 9.8148ZM 99 14.9347C 91.7634 14.9347 85.8827 20.8703 85.8827 28.1594L 86.7327 28.1594C 86.7327 21.333 92.2396 15.7847 99 15.7847L 99 14.9347ZM 85.8827 28.1594C 85.8827 29.3412 84.9324 30.2944 83.7692 30.2944L 83.7692 31.1444C 85.4086 31.1444 86.7327 29.8039 86.7327 28.1594L 85.8827 28.1594ZM 83.7692 30.2944L 78.6923 30.2944L 78.6923 31.1444L 83.7692 31.1444L 83.7692 30.2944ZM 79.1173 30.7194C 79.1173 26.2539 75.5136 22.6145 71.0769 22.6145L 71.0769 23.4645C 75.0374 23.4645 78.2673 26.7166 78.2673 30.7194L 79.1173 30.7194ZM 71.0769 22.6145L 68.5385 22.6145L 68.5385 23.4645L 71.0769 23.4645L 71.0769 22.6145ZM 68.9635 23.0395L 68.9635 20.1161L 68.1135 20.1161L 68.1135 23.0395L 68.9635 23.0395ZM 68.6462 20.5272C 73.1937 19.3354 76.5788 15.1976 76.5788 10.2398L 75.7288 10.2398C 75.7288 14.7998 72.6155 18.6082 68.4307 19.705L 68.6462 20.5272ZM 76.5788 10.2398C 76.5788 4.36121 71.8379 -0.425 66 -0.425L 66 0.425C 71.3618 0.425 75.7288 4.82388 75.7288 10.2398L 76.5788 10.2398ZM 66 -0.425C 60.1621 -0.425 55.4212 4.36121 55.4212 10.2398L 56.2712 10.2398C 56.2712 4.82388 60.6382 0.425 66 0.425L 66 -0.425ZM 55.4212 10.2398C 55.4212 15.1976 58.8063 19.3354 63.3538 20.5272L 63.5693 19.705C 59.3845 18.6082 56.2712 14.7998 56.2712 10.2398L 55.4212 10.2398ZM 63.0365 20.1161L 63.0365 23.0395L 63.8865 23.0395L 63.8865 20.1161L 63.0365 20.1161ZM 63.4615 22.6145L 60.9231 22.6145L 60.9231 23.4645L 63.4615 23.4645L 63.4615 22.6145ZM 60.9231 22.6145C 56.4864 22.6145 52.8827 26.2539 52.8827 30.7194L 53.7327 30.7194C 53.7327 26.7166 56.9626 23.4645 60.9231 23.4645L 60.9231 22.6145ZM 53.3077 30.2944L 48.2308 30.2944L 48.2308 31.1444L 53.3077 31.1444L 53.3077 30.2944ZM 48.2308 30.2944C 47.0676 30.2944 46.1173 29.3412 46.1173 28.1594L 45.2673 28.1594C 45.2673 29.8039 46.5914 31.1444 48.2308 31.1444L 48.2308 30.2944ZM 46.1173 28.1594C 46.1173 20.8703 40.2366 14.9347 33 14.9347L 33 15.7847C 39.7604 15.7847 45.2673 21.333 45.2673 28.1594L 46.1173 28.1594ZM 33.425 15.3597C 33.425 12.3047 30.9611 9.8148 27.9231 9.8148L 27.9231 10.6648C 30.4849 10.6648 32.575 12.7674 32.575 15.3597L 33.425 15.3597ZM 27.9231 9.8148L 17.7692 9.8148L 17.7692 10.6648L 27.9231 10.6648L 27.9231 9.8148ZM 17.7692 9.8148C 14.7312 9.8148 12.2673 12.3047 12.2673 15.3597L 13.1173 15.3597C 13.1173 12.7674 15.2074 10.6648 17.7692 10.6648L 17.7692 9.8148ZM 12.6923 14.9347C 5.45568 14.9347 -0.425 20.8703 -0.425 28.1594L 0.425 28.1594C 0.425 21.333 5.93186 15.7847 12.6923 15.7847L 12.6923 14.9347ZM -0.425 28.1594L -0.425 83.7769L 0.425 83.7769L 0.425 28.1594L -0.425 28.1594ZM -0.425 83.7769C -0.425 96.4908 9.10316 107.094 21.3029 107.893L 21.3585 107.045C 9.63577 106.277 0.425 96.0737 0.425 83.7769L -0.425 83.7769ZM 21.3036 107.893C 27.7996 108.308 34.0153 106.086 38.7598 101.601L 38.1759 100.983C 33.6042 105.305 27.6201 107.445 21.3578 107.045L 21.3036 107.893ZM 38.7598 101.601C 43.4372 97.1786 46.1173 90.9407 46.1173 84.4783L 45.2673 84.4783C 45.2673 90.7081 42.6826 96.7222 38.1759 100.983L 38.7598 101.601ZM 46.1173 84.4783L 46.1173 79.3584L 45.2673 79.3584L 45.2673 84.4783L 46.1173 84.4783ZM 46.1173 79.3584C 46.1173 78.1767 47.0676 77.2235 48.2308 77.2235L 48.2308 76.3735C 46.5914 76.3735 45.2673 77.714 45.2673 79.3584L 46.1173 79.3584ZM 48.2308 77.2235L 83.7692 77.2235L 83.7692 76.3735L 48.2308 76.3735L 48.2308 77.2235ZM 83.7692 77.2235C 84.9324 77.2235 85.8827 78.1767 85.8827 79.3584L 86.7327 79.3584C 86.7327 77.714 85.4086 76.3735 83.7692 76.3735L 83.7692 77.2235ZM 85.8827 79.3584L 85.8827 83.7769L 86.7327 83.7769L 86.7327 79.3584L 85.8827 79.3584ZM 85.8827 83.7769C 85.8827 96.4908 95.4109 107.094 107.611 107.893L 107.666 107.045C 95.9435 106.277 86.7327 96.0737 86.7327 83.7769L 85.8827 83.7769ZM 107.611 107.893C 108.13 107.927 108.657 107.945 109.174 107.945L 109.174 107.095C 108.671 107.095 108.172 107.078 107.666 107.045L 107.611 107.893ZM 109.174 107.945C 115.082 107.938 120.722 105.698 125.067 101.601L 124.484 100.983C 120.265 104.981 114.923 107.103 109.174 107.095L 109.174 107.945ZM 125.068 101.601C 129.745 97.1786 132.425 90.9407 132.425 84.4783L 131.575 84.4783C 131.575 90.7081 128.99 96.7222 124.484 100.983L 125.068 101.601ZM 132.425 84.4783L 132.425 28.1594L 131.575 28.1594L 131.575 84.4783L 132.425 84.4783ZM 132.425 28.1594C 132.425 20.8703 126.544 14.9347 119.308 14.9347L 119.308 15.7847C 126.068 15.7847 131.575 21.333 131.575 28.1594L 132.425 28.1594Z"/>
<path id="path1_stroke" d="M 0.425 5.1199C 0.425 2.52761 2.51509 0.425 5.07692 0.425L 5.07692 -0.425C 2.03891 -0.425 -0.425 2.06494 -0.425 5.1199L 0.425 5.1199ZM 5.07692 0.425C 7.63875 0.425 9.72885 2.52761 9.72885 5.1199L 10.5788 5.1199C 10.5788 2.06494 8.11494 -0.425 5.07692 -0.425L 5.07692 0.425ZM 9.72885 5.1199C 9.72885 7.71219 7.63875 9.8148 5.07692 9.8148L 5.07692 10.6648C 8.11494 10.6648 10.5788 8.17486 10.5788 5.1199L 9.72885 5.1199ZM 5.07692 9.8148C 2.51509 9.8148 0.425 7.71219 0.425 5.1199L -0.425 5.1199C -0.425 8.17486 2.03891 10.6648 5.07692 10.6648L 5.07692 9.8148Z"/>
<path id="path2_fill" fill-rule="evenodd" d="M 2.53846 0L 12.6923 0C 14.0935 0 15.2308 1.14686 15.2308 2.55995L 0 2.55995C 0 1.14686 1.13723 0 2.53846 0Z"/>
<path id="path3_stroke_2x" d="M 15.2308 2.55995L 15.2308 3.40995L 16.0808 3.40995L 16.0808 2.55995L 15.2308 2.55995ZM 0 2.55995L -0.85 2.55995L -0.85 3.40995L 0 3.40995L 0 2.55995ZM 2.53846 0.85L 12.6923 0.85L 12.6923 -0.85L 2.53846 -0.85L 2.53846 0.85ZM 12.6923 0.85C 13.6174 0.85 14.3808 1.60953 14.3808 2.55995L 16.0808 2.55995C 16.0808 0.684184 14.5697 -0.85 12.6923 -0.85L 12.6923 0.85ZM 15.2308 1.70995L 0 1.70995L 0 3.40995L 15.2308 3.40995L 15.2308 1.70995ZM 0.85 2.55995C 0.85 1.60953 1.61341 0.85 2.53846 0.85L 2.53846 -0.85C 0.661048 -0.85 -0.85 0.684184 -0.85 2.55995L 0.85 2.55995Z"/>
<path id="path4_stroke" d="M -1.35568e-06 8.77294L -0.349378 8.53095L -0.589588 8.87775L -0.244574 9.12052L -1.35568e-06 8.77294ZM 4.16562 11.7041L 3.92104 12.0517L 4.27154 12.2983L 4.51522 11.9457L 4.16562 11.7041ZM 29.1669 11.7015L 28.8175 11.9434L 29.0612 12.2956L 29.4115 12.0491L 29.1669 11.7015ZM 33.3325 8.77038L 33.5771 9.11796L 33.9223 8.87506L 33.6818 8.52821L 33.3325 8.77038ZM -0.244574 9.12052L 3.92104 12.0517L 4.41019 11.3565L 0.244571 8.42537L -0.244574 9.12052ZM 4.51522 11.9457C 7.2872 7.93555 11.8303 5.5449 16.665 5.5449L 16.665 4.6949C 11.5489 4.6949 6.74542 7.22447 3.81601 11.4624L 4.51522 11.9457ZM 16.665 5.5449C 21.4997 5.5449 26.0429 7.93556 28.8175 11.9434L 29.5164 11.4596C 26.5845 7.22446 21.7811 4.6949 16.665 4.6949L 16.665 5.5449ZM 29.4115 12.0491L 33.5771 9.11796L 33.088 8.42281L 28.9223 11.354L 29.4115 12.0491ZM 33.6818 8.52821C 29.7955 2.92376 23.4362 -0.425 16.665 -0.425L 16.665 0.425C 23.1547 0.425 29.2542 3.63483 32.9833 9.01256L 33.6818 8.52821ZM 16.665 -0.425C 9.8938 -0.425 3.53442 2.92377 -0.349378 8.53095L 0.349375 9.01494C 4.07589 3.63482 10.1753 0.425 16.665 0.425L 16.665 -0.425Z"/>
<path id="path5_stroke" d="M 45.6898 15.9971L 45.3413 16.2405L 45.5866 16.5918L 45.9359 16.3436L 45.6898 15.9971ZM 49.8402 13.0481L 50.0863 13.3945L 50.43 13.1503L 50.1886 12.8047L 49.8402 13.0481ZM 1.43315e-06 13.0532L -0.348529 12.81L -0.589877 13.1558L -0.245883 13.3998L 1.43315e-06 13.0532ZM 4.15039 15.9971L 3.9045 16.3438L 4.25382 16.5915L 4.49891 16.2403L 4.15039 15.9971ZM 24.9201 5.5449C 33.0275 5.5449 40.6631 9.54133 45.3413 16.2405L 46.0382 15.7538C 41.2023 8.82887 33.3075 4.6949 24.9201 4.6949L 24.9201 5.5449ZM 45.9359 16.3436L 50.0863 13.3945L 49.594 12.7016L 45.4436 15.6507L 45.9359 16.3436ZM 50.1886 12.8047C 44.4033 4.52044 34.9575 -0.425 24.9201 -0.425L 24.9201 0.425C 34.6776 0.425 43.8641 5.23297 49.4917 13.2914L 50.1886 12.8047ZM 24.9201 -0.425C 14.8801 -0.425 5.43425 4.52305 -0.348529 12.81L 0.348532 13.2964C 5.9736 5.23548 15.1601 0.425 24.9201 0.425L 24.9201 -0.425ZM -0.245883 13.3998L 3.9045 16.3438L 4.39627 15.6505L 0.245886 12.7065L -0.245883 13.3998ZM 4.49891 16.2403C 9.17203 9.54391 16.81 5.5449 24.9201 5.5449L 24.9201 4.6949C 16.5301 4.6949 8.63274 8.83141 3.80186 15.7539L 4.49891 16.2403Z"/>
<path id="path6_stroke" d="M 15.2308 0L 15.6558 0L 15.6558 -0.425L 15.2308 -0.425L 15.2308 0ZM 10.1538 0L 10.1538 -0.425L 9.72885 -0.425L 9.72885 0L 10.1538 0ZM 10.1538 10.2398L 10.1538 10.6648L 10.5788 10.6648L 10.5788 10.2398L 10.1538 10.2398ZM 0 10.2398L 0 9.81479L -0.425 9.81479L -0.425 10.2398L 0 10.2398ZM 0 15.3597L -0.425 15.3597L -0.425 15.7847L 0 15.7847L 0 15.3597ZM 10.1538 15.3597L 10.5788 15.3597L 10.5788 14.9347L 10.1538 14.9347L 10.1538 15.3597ZM 10.1538 25.5995L 9.72885 25.5995L 9.72885 26.0245L 10.1538 26.0245L 10.1538 25.5995ZM 15.2308 25.5995L 15.2308 26.0245L 15.6558 26.0245L 15.6558 25.5995L 15.2308 25.5995ZM 15.2308 15.3597L 15.2308 14.9347L 14.8058 14.9347L 14.8058 15.3597L 15.2308 15.3597ZM 25.3846 15.3597L 25.3846 15.7847L 25.8096 15.7847L 25.8096 15.3597L 25.3846 15.3597ZM 25.3846 10.2398L 25.8096 10.2398L 25.8096 9.81479L 25.3846 9.81479L 25.3846 10.2398ZM 15.2308 10.2398L 14.8058 10.2398L 14.8058 10.6648L 15.2308 10.6648L 15.2308 10.2398ZM 15.2308 -0.425L 10.1538 -0.425L 10.1538 0.425L 15.2308 0.425L 15.2308 -0.425ZM 9.72885 0L 9.72885 10.2398L 10.5788 10.2398L 10.5788 0L 9.72885 0ZM 10.1538 9.81479L 0 9.81479L 0 10.6648L 10.1538 10.6648L 10.1538 9.81479ZM -0.425 10.2398L -0.425 15.3597L 0.425 15.3597L 0.425 10.2398L -0.425 10.2398ZM 0 15.7847L 10.1538 15.7847L 10.1538 14.9347L 0 14.9347L 0 15.7847ZM 9.72885 15.3597L 9.72885 25.5995L 10.5788 25.5995L 10.5788 15.3597L 9.72885 15.3597ZM 10.1538 26.0245L 15.2308 26.0245L 15.2308 25.1745L 10.1538 25.1745L 10.1538 26.0245ZM 15.6558 25.5995L 15.6558 15.3597L 14.8058 15.3597L 14.8058 25.5995L 15.6558 25.5995ZM 15.2308 15.7847L 25.3846 15.7847L 25.3846 14.9347L 15.2308 14.9347L 15.2308 15.7847ZM 25.8096 15.3597L 25.8096 10.2398L 24.9596 10.2398L 24.9596 15.3597L 25.8096 15.3597ZM 25.3846 9.81479L 15.2308 9.81479L 15.2308 10.6648L 25.3846 10.6648L 25.3846 9.81479ZM 15.6558 10.2398L 15.6558 0L 14.8058 0L 14.8058 10.2398L 15.6558 10.2398Z"/>
<path id="path7_stroke" d="M 9.72885 5.1199C 9.72885 7.7162 7.64274 9.8148 5.07692 9.8148L 5.07692 10.6648C 8.11892 10.6648 10.5788 8.17888 10.5788 5.1199L 9.72885 5.1199ZM 5.07692 9.8148C 2.51111 9.8148 0.425 7.7162 0.425 5.1199L -0.425 5.1199C -0.425 8.17888 2.03492 10.6648 5.07692 10.6648L 5.07692 9.8148ZM 0.425 5.1199C 0.425 2.52359 2.51111 0.425 5.07692 0.425L 5.07692 -0.425C 2.03492 -0.425 -0.425 2.06092 -0.425 5.1199L 0.425 5.1199ZM 5.07692 0.425C 7.64274 0.425 9.72885 2.52359 9.72885 5.1199L 10.5788 5.1199C 10.5788 2.06092 8.11892 -0.425 5.07692 -0.425L 5.07692 0.425Z"/>
<path id="path8_stroke" d="M 14.8058 2.55995C 14.8058 3.7417 13.8554 4.6949 12.6923 4.6949L 12.6923 5.5449C 14.3316 5.5449 15.6558 4.20438 15.6558 2.55995L 14.8058 2.55995ZM 12.6923 4.6949L 2.53846 4.6949L 2.53846 5.5449L 12.6923 5.5449L 12.6923 4.6949ZM 2.53846 4.6949C 1.37532 4.6949 0.425 3.7417 0.425 2.55995L -0.425 2.55995C -0.425 4.20438 0.899139 5.5449 2.53846 5.5449L 2.53846 4.6949ZM 0.425 2.55995C 0.425 1.37819 1.37532 0.425 2.53846 0.425L 2.53846 -0.425C 0.899139 -0.425 -0.425 0.915521 -0.425 2.55995L 0.425 2.55995ZM 2.53846 0.425L 12.6923 0.425L 12.6923 -0.425L 2.53846 -0.425L 2.53846 0.425ZM 12.6923 0.425C 13.8554 0.425 14.8058 1.37819 14.8058 2.55995L 15.6558 2.55995C 15.6558 0.915521 14.3316 -0.425 12.6923 -0.425L 12.6923 0.425Z"/>
</defs>
</svg>
